<?xml version="1.0" encoding="iso-8859-1"?>
<!-- Uploaded to: SVG Repo, www.svgrepo.com, Generator: SVG Repo Mixer Tools -->
<svg fill="#000000" height="800px" width="800px" version="1.1" id="Layer_1" xmlns="http://www.w3.org/2000/svg" xmlns:xlink="http://www.w3.org/1999/xlink" 
	 viewBox="0 0 512 512" xml:space="preserve">
<g>
	<g>
		<path d="M471.917,109.028H298.221l8.482-63.609c0.306-2.291-0.392-4.602-1.914-6.341s-3.721-2.736-6.032-2.736h-85.511
			c-2.311,0-4.51,0.997-6.032,2.736c-1.522,1.739-2.22,4.05-1.914,6.341l8.479,63.609H40.083C17.981,109.028,0,127.009,0,149.111
			v286.463c0,22.103,17.981,40.084,40.083,40.084H159.8c4.427,0,8.017-3.588,8.017-8.017s-3.589-8.017-8.017-8.017H40.083
			c-13.262,0-24.05-10.789-24.05-24.05V149.111c0-13.261,10.788-24.05,24.05-24.05h175.833l2.207,16.558
			c0.531,3.983,3.928,6.957,7.946,6.957h59.858c4.018,0,7.416-2.975,7.946-6.957l2.209-16.558h175.833
			c13.262,0,24.05,10.789,24.05,24.05v286.463c0,13.261-10.788,24.05-24.05,24.05H198.28c-4.427,0-8.017,3.588-8.017,8.017
			s3.589,8.017,8.017,8.017h273.637c22.103,0,40.083-17.981,40.083-40.084V149.111C512,127.009,494.019,109.028,471.917,109.028z
			 M278.91,132.543h-45.82L222.4,52.376h67.198L278.91,132.543z"/>
	</g>
</g>
<g>
	<g>
		<path d="M169.42,275.775h-3.017c16.663-8.337,28.136-25.564,28.136-45.428c0-27.995-22.777-50.772-50.772-50.772
			c-27.995,0-50.772,22.777-50.772,50.772c0,19.864,11.474,37.091,28.137,45.428h-3.018c-22.103,0-40.083,17.981-40.083,40.083
			v68.409c0,4.428,3.589,8.017,8.017,8.017h115.44c4.427,0,8.017-3.588,8.017-8.017v-68.409
			C209.503,293.756,191.522,275.775,169.42,275.775z M109.027,230.347c0-19.156,15.584-34.739,34.739-34.739
			c19.155,0,34.739,15.583,34.739,34.739s-15.584,34.739-34.739,34.739C124.612,265.086,109.027,249.503,109.027,230.347z
			 M193.47,376.251H94.063v-60.393c0-13.261,10.788-24.05,24.05-24.05h51.307c13.262,0,24.05,10.789,24.05,24.05V376.251z"/>
	</g>
</g>
<g>
	<g>
		<path d="M428.092,215.917H248.518c-4.427,0-8.017,3.588-8.017,8.017c0,4.428,3.589,8.017,8.017,8.017h179.574
			c4.427,0,8.017-3.588,8.017-8.017C436.109,219.505,432.519,215.917,428.092,215.917z"/>
	</g>
</g>
<g>
	<g>
		<path d="M428.092,181.712h-48.1c-4.427,0-8.017,3.588-8.017,8.017c0,4.428,3.589,8.017,8.017,8.017h48.1
			c4.427,0,8.017-3.588,8.017-8.017C436.109,185.301,432.519,181.712,428.092,181.712z"/>
	</g>
</g>
<g>
	<g>
		<path d="M347.925,181.712h-99.407c-4.427,0-8.017,3.588-8.017,8.017c0,4.428,3.589,8.017,8.017,8.017h99.407
			c4.427,0,8.017-3.588,8.017-8.017C355.942,185.301,352.352,181.712,347.925,181.712z"/>
	</g>
</g>
<g>
	<g>
		<path d="M428.092,414.731H86.046c-4.427,0-8.017,3.588-8.017,8.017c0,4.428,3.589,8.017,8.017,8.017h342.046
			c4.427,0,8.017-3.588,8.017-8.017C436.109,418.319,432.519,414.731,428.092,414.731z"/>
	</g>
</g>
<g>
	<g>
		<path d="M339.374,256.535c-37.426,0-67.875,30.449-67.875,67.875c0,37.426,30.448,67.875,67.875,67.875
			c37.426,0,67.875-30.448,67.875-67.875C407.248,286.983,376.8,256.535,339.374,256.535z M339.374,376.251
			c-28.585,0-51.841-23.256-51.841-51.841s23.256-51.841,51.841-51.841c28.585,0,51.841,23.256,51.841,51.841
			S367.959,376.251,339.374,376.251z"/>
	</g>
</g>
<g>
	<g>
		<path d="M375.337,304.166c-2.916-3.333-7.98-3.67-11.312-0.755l-28.255,24.724l-13.952-15.502
			c-2.962-3.291-8.032-3.557-11.322-0.595c-3.291,2.962-3.558,8.031-0.596,11.322l19.24,21.378c1.582,1.757,3.767,2.653,5.961,2.653
			c1.875,0,3.757-0.653,5.277-1.983l34.205-29.929C377.914,312.562,378.252,307.498,375.337,304.166z"/>
	</g>
</g>
</svg>